<svg version="1.1" xmlns="http://www.w3.org/2000/svg" xmlns:xlink="http://www.w3.org/1999/xlink" width="48" height="48"><defs><linearGradient x1="14.22989" y1="14.22989" x2="54.98331" y2="54.98331" gradientUnits="userSpaceOnUse" id="color-1"><stop offset="0" stop-color="#000000" stop-opacity="0.3"></stop><stop offset="1" stop-color="#000000" stop-opacity="0"></stop></linearGradient><filter id="dropshadow-base"><feColorMatrix type="matrix" values="0 0 0 0 0  0 0 0 0 0  0 0 0 0 0  0 0 0 .8 0"></feColorMatrix> <feOffset dx="0" dy="1"></feOffset> <feGaussianBlur stdDeviation="1"></feGaussianBlur> <feComposite in="SourceGraphic"></feComposite></filter><filter id="dropshadow-banner" x="-10%" y="-10%" width="120%" height="130%"><feColorMatrix type="matrix" values="0 0 0 0 0  0 0 0 0 0  0 0 0 0 0  0 0 0 .4 0"></feColorMatrix> <feOffset dx="0" dy="1"></feOffset> <feGaussianBlur stdDeviation="0.5"></feGaussianBlur> <feComposite in="SourceGraphic"></feComposite></filter></defs><g fill="none" fill-rule="nonzero" stroke="none" stroke-width="none" stroke-linecap="butt" stroke-linejoin="miter" stroke-miterlimit="10" stroke-dasharray="" stroke-dashoffset="0" font-family="none" font-weight="none" font-size="none" text-anchor="none" style="mix-blend-mode: normal"><path d="M2,24c0,-12.15026 9.84974,-22 22,-22c12.15026,0 22,9.84974 22,22c0,12.15026 -9.84974,22 -22,22c-12.15026,0 -22,-9.84974 -22,-22z" id="base 1 5" fill="#34ad40" stroke-width="1"></path><path d="M30.90865,17.09493l13.94191,13.94191c-2.18996,6.49136 -7.32629,11.62668 -13.81828,13.81525l-13.93983,-13.93983c-1.76877,-1.76877 -2.86256,-4.21328 -2.86256,-6.91227c0,-5.3931 4.36724,-9.77011 9.76034,-9.77011c2.70266,0 5.14862,1.09524 6.91842,2.86504z" fill="url(#color-1)" stroke-width="1"></path><path d="M23.99023,14.22989c-5.3931,0 -9.76034,4.37701 -9.76034,9.77011c0,5.3931 4.36724,9.77011 9.76034,9.77011c5.40287,0 9.77988,-4.37701 9.77988,-9.77011c0,-5.3931 -4.37701,-9.77011 -9.77988,-9.77011zM28.1523,28.0546l-5.12931,-3.07758v-5.86207h1.46552v5.12931l4.39655,2.60862z" fill="none" stroke-width="0"></path><path d="M33.77011,24c0,5.3931 -4.37701,9.77011 -9.77988,9.77011c-5.3931,0 -9.76034,-4.37701 -9.76034,-9.77011c0,-5.3931 4.36724,-9.77011 9.76034,-9.77011c5.40287,0 9.77988,4.37701 9.77988,9.77011zM28.88505,26.85287l-4.39655,-2.60862v-5.12931h-1.46552v5.86207l5.12931,3.07758z" fill="#ffffff" stroke-width="0"></path><path d="M2,24c0,-12.15026 9.84974,-22 22,-22c12.15026,0 22,9.84974 22,22c0,12.15026 -9.84974,22 -22,22c-12.15026,0 -22,-9.84974 -22,-22z" id="base 1 1 1" fill="none" stroke-width="1"></path><g fill="#000000" stroke-width="1" font-family="Roboto, sans-serif" font-weight="400" font-size="14" text-anchor="start"></g><rect x="2" y="2" width="44" height="22" fill="none" stroke-width="1"></rect><path d="M2,24v-22h44v22z" fill="none" stroke-width="1"></path><path d="M2,24v-22h44v22z" fill="none" stroke-width="1"></path><path d="M2,24v-22h44v22z" fill="none" stroke-width="1"></path><path d="M2,24v-22h44v22z" fill="none" stroke-width="1"></path></g></svg>